<mxfile host="drawio-plugin" agent="Mozilla/5.0 (Windows NT 10.0; Win64; x64) AppleWebKit/537.36 (KHTML, like Gecko) Chrome/122.0.0.0 Safari/537.36" modified="2024-08-19T11:47:21.359Z" version="22.1.22" etag="dyw3yIckr5WVzjl4W-LX" type="embed">
  <diagram id="C5RBs43oDa-KdzZeNtuy" name="Page-1">
    <mxGraphModel dx="4714" dy="3961" grid="1" gridSize="10" guides="1" tooltips="1" connect="1" arrows="1" fold="1" page="1" pageScale="1" pageWidth="827" pageHeight="1169" math="0" shadow="0">
      <root>
        <mxCell id="WIyWlLk6GJQsqaUBKTNV-0" />
        <mxCell id="WIyWlLk6GJQsqaUBKTNV-1" parent="WIyWlLk6GJQsqaUBKTNV-0" />
        <mxCell id="52" value="&lt;p style=&quot;margin: 4px 0px 0px; text-align: center; font-size: 25px;&quot;&gt;&lt;b style=&quot;font-size: 25px;&quot;&gt;Usuario&lt;/b&gt;&lt;/p&gt;&lt;hr style=&quot;border-style: solid; font-size: 25px;&quot;&gt;&lt;p style=&quot;margin: 0px 0px 0px 4px; font-size: 25px;&quot;&gt;- login: String&lt;/p&gt;&lt;p style=&quot;margin: 0px 0px 0px 4px; font-size: 25px;&quot;&gt;- senha: String&lt;/p&gt;&lt;p style=&quot;margin: 0px 0px 0px 4px; font-size: 25px;&quot;&gt;&lt;span style=&quot;background-color: initial;&quot;&gt;- saldo: double&lt;/span&gt;&lt;br&gt;&lt;/p&gt;&lt;p style=&quot;margin: 0px 0px 0px 4px; font-size: 25px;&quot;&gt;&lt;span style=&quot;background-color: initial;&quot;&gt;- id : int&lt;/span&gt;&lt;/p&gt;&lt;hr style=&quot;border-style: solid; font-size: 25px;&quot;&gt;&lt;div&gt;+ setLogin(&lt;span style=&quot;background-color: initial;&quot;&gt;&amp;nbsp;login&lt;/span&gt;&lt;span style=&quot;background-color: initial;&quot;&gt;: String&lt;/span&gt;&lt;span style=&quot;background-color: initial;&quot;&gt;) void&lt;/span&gt;&lt;/div&gt;&lt;div&gt;&lt;span style=&quot;background-color: initial;&quot;&gt;+ getLogin() void&lt;/span&gt;&lt;/div&gt;&lt;div&gt;&lt;span style=&quot;background-color: initial;&quot;&gt;+ setSenha(senha&lt;/span&gt;&lt;span style=&quot;background-color: initial;&quot;&gt;: String&lt;/span&gt;&lt;span style=&quot;background-color: initial;&quot;&gt;) void&lt;/span&gt;&lt;/div&gt;&lt;p style=&quot;margin: 0px 0px 0px 4px;&quot;&gt;+ getSenha() String&lt;/p&gt;&lt;div&gt;+ setSaldo&lt;span style=&quot;background-color: initial;&quot;&gt;(saldo&lt;/span&gt;&lt;span style=&quot;background-color: initial;&quot;&gt;: int&lt;/span&gt;&lt;span style=&quot;background-color: initial;&quot;&gt;) void&lt;/span&gt;&lt;/div&gt;&lt;div&gt;+ getSaldo() int&lt;/div&gt;" style="verticalAlign=top;align=left;overflow=fill;html=1;whiteSpace=wrap;fontSize=25;" vertex="1" parent="WIyWlLk6GJQsqaUBKTNV-1">
          <mxGeometry x="-370" y="340" width="370" height="400" as="geometry" />
        </mxCell>
        <mxCell id="53" value="Despesas" style="swimlane;fontStyle=1;align=center;verticalAlign=top;childLayout=stackLayout;horizontal=1;startSize=26;horizontalStack=0;resizeParent=1;resizeParentMax=0;resizeLast=0;collapsible=1;marginBottom=0;whiteSpace=wrap;html=1;fontSize=25;spacingTop=-7;" vertex="1" parent="WIyWlLk6GJQsqaUBKTNV-1">
          <mxGeometry x="730" y="-380" width="330" height="296" as="geometry" />
        </mxCell>
        <mxCell id="54" value="&lt;div style=&quot;font-size: 25px;&quot;&gt;&lt;span style=&quot;background-color: initial; font-size: 25px;&quot;&gt;# id: String&lt;/span&gt;&lt;/div&gt;&lt;div style=&quot;font-size: 25px;&quot;&gt;&lt;span style=&quot;background-color: initial; font-size: 25px;&quot;&gt;# Categoria: String&lt;/span&gt;&lt;/div&gt;&lt;div style=&quot;font-size: 25px;&quot;&gt;# dataEmissao:Data&lt;/div&gt;&lt;div style=&quot;font-size: 25px;&quot;&gt;&lt;span style=&quot;background-color: initial; font-size: 25px;&quot;&gt;# dataVencimento:Data&lt;/span&gt;&lt;/div&gt;&lt;div style=&quot;font-size: 25px;&quot;&gt;&lt;span style=&quot;background-color: initial; font-size: 25px;&quot;&gt;# descricao: String&lt;/span&gt;&lt;/div&gt;&lt;div style=&quot;font-size: 25px;&quot;&gt;&lt;span style=&quot;background-color: initial; font-size: 25px;&quot;&gt;# recorrencia: byte&lt;/span&gt;&lt;/div&gt;" style="text;strokeColor=none;fillColor=none;align=left;verticalAlign=top;spacingLeft=4;spacingRight=4;overflow=hidden;rotatable=0;points=[[0,0.5],[1,0.5]];portConstraint=eastwest;whiteSpace=wrap;html=1;fontSize=25;" vertex="1" parent="53">
          <mxGeometry y="26" width="330" height="190" as="geometry" />
        </mxCell>
        <mxCell id="55" value="" style="line;strokeWidth=1;fillColor=none;align=left;verticalAlign=middle;spacingTop=-1;spacingLeft=3;spacingRight=3;rotatable=0;labelPosition=right;points=[];portConstraint=eastwest;strokeColor=inherit;fontSize=25;" vertex="1" parent="53">
          <mxGeometry y="216" width="330" height="40" as="geometry" />
        </mxCell>
        <mxCell id="56" value="&lt;div style=&quot;font-size: 25px;&quot;&gt;&lt;br&gt;&lt;/div&gt;" style="text;strokeColor=none;fillColor=none;align=left;verticalAlign=top;spacingLeft=4;spacingRight=4;overflow=hidden;rotatable=0;points=[[0,0.5],[1,0.5]];portConstraint=eastwest;whiteSpace=wrap;html=1;fontSize=25;" vertex="1" parent="53">
          <mxGeometry y="256" width="330" height="40" as="geometry" />
        </mxCell>
        <mxCell id="57" value="DespesasVariaveis" style="swimlane;fontStyle=1;align=center;verticalAlign=top;childLayout=stackLayout;horizontal=1;startSize=26;horizontalStack=0;resizeParent=1;resizeParentMax=0;resizeLast=0;collapsible=1;marginBottom=0;whiteSpace=wrap;html=1;fontSize=25;spacingTop=-7;" vertex="1" parent="WIyWlLk6GJQsqaUBKTNV-1">
          <mxGeometry x="960" y="160" width="660" height="386" as="geometry" />
        </mxCell>
        <mxCell id="58" value="&lt;div style=&quot;font-size: 25px;&quot;&gt;- valor: double&lt;/div&gt;- quantidadeParcelas: int&lt;div style=&quot;font-size: 25px;&quot;&gt;- parcelasPagas: int&lt;/div&gt;" style="text;strokeColor=none;fillColor=none;align=left;verticalAlign=top;spacingLeft=4;spacingRight=4;overflow=hidden;rotatable=0;points=[[0,0.5],[1,0.5]];portConstraint=eastwest;whiteSpace=wrap;html=1;fontSize=25;" vertex="1" parent="57">
          <mxGeometry y="26" width="660" height="100" as="geometry" />
        </mxCell>
        <mxCell id="59" value="" style="line;strokeWidth=1;fillColor=none;align=left;verticalAlign=middle;spacingTop=-1;spacingLeft=3;spacingRight=3;rotatable=0;labelPosition=right;points=[];portConstraint=eastwest;strokeColor=inherit;fontSize=25;" vertex="1" parent="57">
          <mxGeometry y="126" width="660" height="40" as="geometry" />
        </mxCell>
        <mxCell id="60" value="&lt;div style=&quot;font-size: 25px;&quot;&gt;+setValor(&lt;span style=&quot;background-color: initial; font-size: 25px;&quot;&gt;&amp;nbsp;&lt;/span&gt;&lt;span style=&quot;background-color: initial; font-size: 25px;&quot;&gt;valor: double&lt;/span&gt;&lt;span style=&quot;background-color: initial; font-size: 25px;&quot;&gt;) void&lt;/span&gt;&lt;/div&gt;&lt;div style=&quot;font-size: 25px;&quot;&gt;&lt;span style=&quot;background-color: initial; font-size: 25px;&quot;&gt;+getValor() double&lt;/span&gt;&lt;/div&gt;&lt;div style=&quot;font-size: 25px;&quot;&gt;&lt;span style=&quot;background-color: initial; font-size: 25px;&quot;&gt;+ setQuantidadesParcelas(q&lt;/span&gt;&lt;span style=&quot;background-color: initial; font-size: 25px;&quot;&gt;uantidadesParcelas: int&lt;/span&gt;&lt;span style=&quot;background-color: initial; font-size: 25px;&quot;&gt;) void&lt;/span&gt;&lt;/div&gt;+ getQuantidadeParcelas() int&lt;div style=&quot;font-size: 25px;&quot;&gt;+ setP&lt;span style=&quot;background-color: initial; font-size: 25px;&quot;&gt;arcelasPagas(&lt;/span&gt;&lt;span style=&quot;background-color: initial; font-size: 25px;&quot;&gt;parcelasPagas: int&lt;/span&gt;&lt;span style=&quot;background-color: initial; font-size: 25px;&quot;&gt;) void&lt;/span&gt;&lt;/div&gt;&lt;div style=&quot;font-size: 25px;&quot;&gt;+ getParcelasPagas() int&lt;/div&gt;" style="text;strokeColor=none;fillColor=none;align=left;verticalAlign=top;spacingLeft=4;spacingRight=4;overflow=hidden;rotatable=0;points=[[0,0.5],[1,0.5]];portConstraint=eastwest;whiteSpace=wrap;html=1;fontSize=25;" vertex="1" parent="57">
          <mxGeometry y="166" width="660" height="220" as="geometry" />
        </mxCell>
        <mxCell id="61" value="DespesaFixas" style="swimlane;fontStyle=1;align=center;verticalAlign=top;childLayout=stackLayout;horizontal=1;startSize=26;horizontalStack=0;resizeParent=1;resizeParentMax=0;resizeLast=0;collapsible=1;marginBottom=0;whiteSpace=wrap;html=1;fontSize=25;spacingTop=-7;" vertex="1" parent="WIyWlLk6GJQsqaUBKTNV-1">
          <mxGeometry x="360" y="350" width="510" height="206" as="geometry" />
        </mxCell>
        <mxCell id="62" value="- valorMensal: double" style="text;strokeColor=none;fillColor=none;align=left;verticalAlign=top;spacingLeft=4;spacingRight=4;overflow=hidden;rotatable=0;points=[[0,0.5],[1,0.5]];portConstraint=eastwest;whiteSpace=wrap;html=1;fontSize=25;" vertex="1" parent="61">
          <mxGeometry y="26" width="510" height="40" as="geometry" />
        </mxCell>
        <mxCell id="63" value="" style="line;strokeWidth=1;fillColor=none;align=left;verticalAlign=middle;spacingTop=-1;spacingLeft=3;spacingRight=3;rotatable=0;labelPosition=right;points=[];portConstraint=eastwest;strokeColor=inherit;fontSize=25;" vertex="1" parent="61">
          <mxGeometry y="66" width="510" height="40" as="geometry" />
        </mxCell>
        <mxCell id="64" value="&lt;div style=&quot;font-size: 25px;&quot;&gt;+ setValorMensal(&lt;span style=&quot;background-color: initial; font-size: 25px;&quot;&gt;ValorMensal double&lt;/span&gt;&lt;span style=&quot;background-color: initial; font-size: 25px;&quot;&gt;) void&lt;/span&gt;&lt;/div&gt;&lt;div style=&quot;font-size: 25px;&quot;&gt;&lt;span style=&quot;background-color: initial; font-size: 25px;&quot;&gt;- getValorMensal() double&lt;/span&gt;&lt;/div&gt;" style="text;strokeColor=none;fillColor=none;align=left;verticalAlign=top;spacingLeft=4;spacingRight=4;overflow=hidden;rotatable=0;points=[[0,0.5],[1,0.5]];portConstraint=eastwest;whiteSpace=wrap;html=1;fontSize=25;" vertex="1" parent="61">
          <mxGeometry y="106" width="510" height="100" as="geometry" />
        </mxCell>
        <mxCell id="65" value="Metas" style="swimlane;fontStyle=1;align=center;verticalAlign=top;childLayout=stackLayout;horizontal=1;startSize=26;horizontalStack=0;resizeParent=1;resizeParentMax=0;resizeLast=0;collapsible=1;marginBottom=0;whiteSpace=wrap;html=1;fontSize=25;spacingTop=-7;" vertex="1" parent="WIyWlLk6GJQsqaUBKTNV-1">
          <mxGeometry x="-940" y="-430" width="440" height="386" as="geometry" />
        </mxCell>
        <mxCell id="66" value="&lt;div style=&quot;font-size: 25px;&quot;&gt;&lt;span style=&quot;background-color: initial; font-size: 25px;&quot;&gt;- numero: String&lt;/span&gt;&lt;/div&gt;&lt;div style=&quot;font-size: 25px;&quot;&gt;&lt;span style=&quot;background-color: initial; font-size: 25px;&quot;&gt;- Categoria: String&lt;/span&gt;&lt;/div&gt;&lt;div style=&quot;font-size: 25px;&quot;&gt;- dataInicial:Data&lt;/div&gt;&lt;div style=&quot;font-size: 25px;&quot;&gt;&lt;span style=&quot;background-color: initial; font-size: 25px;&quot;&gt;- dataFinal:Data&lt;/span&gt;&lt;/div&gt;&lt;div style=&quot;font-size: 25px;&quot;&gt;&lt;span style=&quot;background-color: initial; font-size: 25px;&quot;&gt;- descricao: String&lt;/span&gt;&lt;/div&gt;&lt;div style=&quot;font-size: 25px;&quot;&gt;&lt;span style=&quot;background-color: initial; font-size: 25px;&quot;&gt;- valorTotal: double&lt;/span&gt;&lt;/div&gt;&lt;div style=&quot;font-size: 25px;&quot;&gt;&lt;span style=&quot;background-color: initial; font-size: 25px;&quot;&gt;- valorDeContribuicao: double&lt;/span&gt;&lt;/div&gt;&lt;div style=&quot;font-size: 25px;&quot;&gt;&lt;span style=&quot;background-color: initial; font-size: 25px;&quot;&gt;- valorArrecadado: double&lt;/span&gt;&lt;/div&gt;&lt;div style=&quot;font-size: 25px;&quot;&gt;- recorrencia: byte&lt;/div&gt;" style="text;strokeColor=none;fillColor=none;align=left;verticalAlign=top;spacingLeft=4;spacingRight=4;overflow=hidden;rotatable=0;points=[[0,0.5],[1,0.5]];portConstraint=eastwest;whiteSpace=wrap;html=1;fontSize=25;" vertex="1" parent="65">
          <mxGeometry y="26" width="440" height="280" as="geometry" />
        </mxCell>
        <mxCell id="67" value="" style="line;strokeWidth=1;fillColor=none;align=left;verticalAlign=middle;spacingTop=-1;spacingLeft=3;spacingRight=3;rotatable=0;labelPosition=right;points=[];portConstraint=eastwest;strokeColor=inherit;fontSize=25;" vertex="1" parent="65">
          <mxGeometry y="306" width="440" height="40" as="geometry" />
        </mxCell>
        <mxCell id="68" value="&lt;div style=&quot;font-size: 25px;&quot;&gt;&lt;br&gt;&lt;/div&gt;" style="text;strokeColor=none;fillColor=none;align=left;verticalAlign=top;spacingLeft=4;spacingRight=4;overflow=hidden;rotatable=0;points=[[0,0.5],[1,0.5]];portConstraint=eastwest;whiteSpace=wrap;html=1;fontSize=25;" vertex="1" parent="65">
          <mxGeometry y="346" width="440" height="40" as="geometry" />
        </mxCell>
        <mxCell id="69" value="Carteira" style="swimlane;fontStyle=1;align=center;verticalAlign=top;childLayout=stackLayout;horizontal=1;startSize=26;horizontalStack=0;resizeParent=1;resizeParentMax=0;resizeLast=0;collapsible=1;marginBottom=0;whiteSpace=wrap;html=1;fontSize=25;spacingTop=-7;" vertex="1" parent="WIyWlLk6GJQsqaUBKTNV-1">
          <mxGeometry x="-135" y="-440" width="440" height="296" as="geometry" />
        </mxCell>
        <mxCell id="70" value="- limiteDespesaFixa: double&lt;div style=&quot;font-size: 25px;&quot;&gt;- limiteDespesaVariavel: double&lt;br style=&quot;font-size: 25px;&quot;&gt;&lt;/div&gt;&lt;div style=&quot;font-size: 25px;&quot;&gt;- limiteMetas: double&lt;/div&gt;&lt;div style=&quot;font-size: 25px;&quot;&gt;- q&lt;span style=&quot;background-color: initial;&quot;&gt;uantidadeFixas:&amp;nbsp; double&lt;/span&gt;&lt;/div&gt;&lt;div style=&quot;font-size: 25px;&quot;&gt;- q&lt;span style=&quot;background-color: initial;&quot;&gt;uantidadeVariavel:&amp;nbsp; double&lt;/span&gt;&lt;br&gt;&lt;/div&gt;&lt;div style=&quot;font-size: 25px;&quot;&gt;- q&lt;span style=&quot;background-color: initial;&quot;&gt;uantidadeMetas:&amp;nbsp; double&lt;/span&gt;&lt;span style=&quot;background-color: initial;&quot;&gt;&lt;br&gt;&lt;/span&gt;&lt;/div&gt;" style="text;strokeColor=none;fillColor=none;align=left;verticalAlign=top;spacingLeft=4;spacingRight=4;overflow=hidden;rotatable=0;points=[[0,0.5],[1,0.5]];portConstraint=eastwest;whiteSpace=wrap;html=1;fontSize=25;" vertex="1" parent="69">
          <mxGeometry y="26" width="440" height="190" as="geometry" />
        </mxCell>
        <mxCell id="71" value="" style="line;strokeWidth=1;fillColor=none;align=left;verticalAlign=middle;spacingTop=-1;spacingLeft=3;spacingRight=3;rotatable=0;labelPosition=right;points=[];portConstraint=eastwest;strokeColor=inherit;fontSize=25;" vertex="1" parent="69">
          <mxGeometry y="216" width="440" height="40" as="geometry" />
        </mxCell>
        <mxCell id="72" value="&lt;div style=&quot;font-size: 25px;&quot;&gt;&lt;br&gt;&lt;/div&gt;" style="text;strokeColor=none;fillColor=none;align=left;verticalAlign=top;spacingLeft=4;spacingRight=4;overflow=hidden;rotatable=0;points=[[0,0.5],[1,0.5]];portConstraint=eastwest;whiteSpace=wrap;html=1;fontSize=25;" vertex="1" parent="69">
          <mxGeometry y="256" width="440" height="40" as="geometry" />
        </mxCell>
        <mxCell id="73" value="" style="endArrow=diamondThin;endFill=1;endSize=24;html=1;rounded=0;exitX=0.497;exitY=1.033;exitDx=0;exitDy=0;entryX=0.5;entryY=0;entryDx=0;entryDy=0;exitPerimeter=0;fontSize=25;" edge="1" parent="WIyWlLk6GJQsqaUBKTNV-1" source="72" target="52">
          <mxGeometry width="160" relative="1" as="geometry">
            <mxPoint x="180" y="93" as="sourcePoint" />
            <mxPoint x="308" y="90" as="targetPoint" />
          </mxGeometry>
        </mxCell>
        <mxCell id="74" value="" style="endArrow=diamondThin;endFill=1;endSize=24;html=1;rounded=0;fontSize=25;" edge="1" parent="WIyWlLk6GJQsqaUBKTNV-1" source="65" target="69">
          <mxGeometry width="160" relative="1" as="geometry">
            <mxPoint x="30" y="180" as="sourcePoint" />
            <mxPoint x="-20" y="130" as="targetPoint" />
          </mxGeometry>
        </mxCell>
        <mxCell id="75" value="" style="endArrow=diamondThin;endFill=1;endSize=24;html=1;rounded=0;fontSize=25;" edge="1" parent="WIyWlLk6GJQsqaUBKTNV-1" source="53" target="69">
          <mxGeometry width="160" relative="1" as="geometry">
            <mxPoint x="30" y="180" as="sourcePoint" />
            <mxPoint x="190" y="180" as="targetPoint" />
          </mxGeometry>
        </mxCell>
        <mxCell id="76" value="Extends" style="endArrow=block;endSize=16;endFill=0;html=1;rounded=0;fontSize=25;" edge="1" parent="WIyWlLk6GJQsqaUBKTNV-1" source="61" target="53">
          <mxGeometry width="160" relative="1" as="geometry">
            <mxPoint x="30" y="180" as="sourcePoint" />
            <mxPoint x="190" y="180" as="targetPoint" />
          </mxGeometry>
        </mxCell>
        <mxCell id="77" value="Extends" style="endArrow=block;endSize=16;endFill=0;html=1;rounded=0;fontSize=25;" edge="1" parent="WIyWlLk6GJQsqaUBKTNV-1" source="57" target="53">
          <mxGeometry width="160" relative="1" as="geometry">
            <mxPoint x="30" y="180" as="sourcePoint" />
            <mxPoint x="190" y="180" as="targetPoint" />
          </mxGeometry>
        </mxCell>
        <mxCell id="78" value="0..*" style="text;html=1;align=center;verticalAlign=middle;whiteSpace=wrap;rounded=0;fontSize=17;" vertex="1" parent="WIyWlLk6GJQsqaUBKTNV-1">
          <mxGeometry x="-490" y="-240" width="60" height="30" as="geometry" />
        </mxCell>
        <mxCell id="79" value="1" style="text;html=1;align=center;verticalAlign=middle;whiteSpace=wrap;rounded=0;fontSize=17;" vertex="1" parent="WIyWlLk6GJQsqaUBKTNV-1">
          <mxGeometry x="-210" y="-240" width="60" height="30" as="geometry" />
        </mxCell>
        <mxCell id="80" value="1" style="text;html=1;align=center;verticalAlign=middle;whiteSpace=wrap;rounded=0;fontSize=17;" vertex="1" parent="WIyWlLk6GJQsqaUBKTNV-1">
          <mxGeometry x="320" y="-240" width="60" height="30" as="geometry" />
        </mxCell>
        <mxCell id="81" value="0..*" style="text;html=1;align=center;verticalAlign=middle;whiteSpace=wrap;rounded=0;fontSize=17;" vertex="1" parent="WIyWlLk6GJQsqaUBKTNV-1">
          <mxGeometry x="660" y="-240" width="60" height="30" as="geometry" />
        </mxCell>
        <mxCell id="82" value="1" style="text;html=1;align=center;verticalAlign=middle;whiteSpace=wrap;rounded=0;fontSize=17;" vertex="1" parent="WIyWlLk6GJQsqaUBKTNV-1">
          <mxGeometry x="100" y="-114" width="60" height="30" as="geometry" />
        </mxCell>
        <mxCell id="83" value="1" style="text;html=1;align=center;verticalAlign=middle;whiteSpace=wrap;rounded=0;fontSize=17;" vertex="1" parent="WIyWlLk6GJQsqaUBKTNV-1">
          <mxGeometry x="-70" y="240" width="60" height="30" as="geometry" />
        </mxCell>
        <mxCell id="84" value="CarteiraDAO" style="swimlane;fontStyle=1;align=center;verticalAlign=top;childLayout=stackLayout;horizontal=1;startSize=26;horizontalStack=0;resizeParent=1;resizeParentMax=0;resizeLast=0;collapsible=1;marginBottom=0;whiteSpace=wrap;html=1;fontSize=25;spacingTop=-7;" vertex="1" parent="WIyWlLk6GJQsqaUBKTNV-1">
          <mxGeometry x="-135" y="-730" width="440" height="146" as="geometry" />
        </mxCell>
        <mxCell id="85" value="&lt;div style=&quot;font-size: 25px;&quot;&gt;&lt;span style=&quot;background-color: initial;&quot;&gt;&lt;br&gt;&lt;/span&gt;&lt;/div&gt;" style="text;strokeColor=none;fillColor=none;align=left;verticalAlign=top;spacingLeft=4;spacingRight=4;overflow=hidden;rotatable=0;points=[[0,0.5],[1,0.5]];portConstraint=eastwest;whiteSpace=wrap;html=1;fontSize=25;" vertex="1" parent="84">
          <mxGeometry y="26" width="440" height="40" as="geometry" />
        </mxCell>
        <mxCell id="86" value="" style="line;strokeWidth=1;fillColor=none;align=left;verticalAlign=middle;spacingTop=-1;spacingLeft=3;spacingRight=3;rotatable=0;labelPosition=right;points=[];portConstraint=eastwest;strokeColor=inherit;fontSize=25;" vertex="1" parent="84">
          <mxGeometry y="66" width="440" height="40" as="geometry" />
        </mxCell>
        <mxCell id="87" value="&lt;div style=&quot;font-size: 25px;&quot;&gt;getCarteira(int id) Carteira&lt;/div&gt;" style="text;strokeColor=none;fillColor=none;align=left;verticalAlign=top;spacingLeft=4;spacingRight=4;overflow=hidden;rotatable=0;points=[[0,0.5],[1,0.5]];portConstraint=eastwest;whiteSpace=wrap;html=1;fontSize=25;" vertex="1" parent="84">
          <mxGeometry y="106" width="440" height="40" as="geometry" />
        </mxCell>
        <mxCell id="88" style="edgeStyle=orthogonalEdgeStyle;rounded=0;orthogonalLoop=1;jettySize=auto;html=1;entryX=0.5;entryY=1;entryDx=0;entryDy=0;endArrow=none;endFill=0;dashed=1;" edge="1" parent="WIyWlLk6GJQsqaUBKTNV-1" source="89" target="52">
          <mxGeometry relative="1" as="geometry" />
        </mxCell>
        <mxCell id="89" value="&lt;p style=&quot;margin: 4px 0px 0px; text-align: center; font-size: 25px;&quot;&gt;&lt;b style=&quot;font-size: 25px;&quot;&gt;UsuarioDAO&lt;/b&gt;&lt;/p&gt;&lt;br&gt;&lt;hr style=&quot;border-style: solid; font-size: 25px;&quot;&gt;&lt;div&gt;+ saveUsuarioCartira(Usuario usuario) void&lt;/div&gt;&lt;div&gt;+ updateUsuarioCarteira(Usuario usuario) void&lt;/div&gt;&lt;div&gt;+ autenticar(String login, String senha) Usuario&lt;/div&gt;&lt;div&gt;&lt;br&gt;&lt;/div&gt;" style="verticalAlign=top;align=left;overflow=fill;html=1;whiteSpace=wrap;fontSize=25;" vertex="1" parent="WIyWlLk6GJQsqaUBKTNV-1">
          <mxGeometry x="-420" y="880" width="540" height="220" as="geometry" />
        </mxCell>
        <mxCell id="90" value="DespesaFixasDAO" style="swimlane;fontStyle=1;align=center;verticalAlign=top;childLayout=stackLayout;horizontal=1;startSize=26;horizontalStack=0;resizeParent=1;resizeParentMax=0;resizeLast=0;collapsible=1;marginBottom=0;whiteSpace=wrap;html=1;fontSize=25;spacingTop=-7;" vertex="1" parent="WIyWlLk6GJQsqaUBKTNV-1">
          <mxGeometry x="250" y="830" width="690" height="256" as="geometry" />
        </mxCell>
        <mxCell id="91" value="" style="line;strokeWidth=1;fillColor=none;align=left;verticalAlign=middle;spacingTop=-1;spacingLeft=3;spacingRight=3;rotatable=0;labelPosition=right;points=[];portConstraint=eastwest;strokeColor=inherit;fontSize=25;" vertex="1" parent="90">
          <mxGeometry y="26" width="690" height="40" as="geometry" />
        </mxCell>
        <mxCell id="92" value="&lt;div style=&quot;font-size: 25px;&quot;&gt;+ save(DespesaFixa despesaFixa, Usuario usuario) boolean&lt;/div&gt;&lt;div style=&quot;font-size: 25px;&quot;&gt;+update(DespesaFixa despesaFixa) int&lt;/div&gt;&lt;div style=&quot;font-size: 25px;&quot;&gt;+delete(int idDesepesaFixa) void&lt;/div&gt;&lt;div style=&quot;font-size: 25px;&quot;&gt;+listarDFPeloId(int id) Arraylist&amp;lt;DespesaFixa&amp;gt;&lt;/div&gt;&lt;div style=&quot;font-size: 25px;&quot;&gt;+somaDespesaFixa(int userId) double&lt;/div&gt;&lt;div style=&quot;font-size: 25px;&quot;&gt;&lt;br&gt;&lt;/div&gt;" style="text;strokeColor=none;fillColor=none;align=left;verticalAlign=top;spacingLeft=4;spacingRight=4;overflow=hidden;rotatable=0;points=[[0,0.5],[1,0.5]];portConstraint=eastwest;whiteSpace=wrap;html=1;fontSize=25;" vertex="1" parent="90">
          <mxGeometry y="66" width="690" height="190" as="geometry" />
        </mxCell>
        <mxCell id="93" style="edgeStyle=orthogonalEdgeStyle;rounded=0;orthogonalLoop=1;jettySize=auto;html=1;endArrow=none;endFill=0;dashed=1;" edge="1" parent="WIyWlLk6GJQsqaUBKTNV-1" source="94" target="57">
          <mxGeometry relative="1" as="geometry">
            <mxPoint x="1660" y="483.3333333333333" as="targetPoint" />
          </mxGeometry>
        </mxCell>
        <mxCell id="94" value="DespesaVariavelDAO" style="swimlane;fontStyle=1;align=center;verticalAlign=top;childLayout=stackLayout;horizontal=1;startSize=26;horizontalStack=0;resizeParent=1;resizeParentMax=0;resizeLast=0;collapsible=1;marginBottom=0;whiteSpace=wrap;html=1;fontSize=25;spacingTop=-7;" vertex="1" parent="WIyWlLk6GJQsqaUBKTNV-1">
          <mxGeometry x="1040" y="830" width="780" height="256" as="geometry" />
        </mxCell>
        <mxCell id="95" value="" style="line;strokeWidth=1;fillColor=none;align=left;verticalAlign=middle;spacingTop=-1;spacingLeft=3;spacingRight=3;rotatable=0;labelPosition=right;points=[];portConstraint=eastwest;strokeColor=inherit;fontSize=25;" vertex="1" parent="94">
          <mxGeometry y="26" width="780" height="40" as="geometry" />
        </mxCell>
        <mxCell id="96" value="&lt;div style=&quot;font-size: 25px;&quot;&gt;+ save(DespesaVariavel despesaVariavel, Usuario usuario) boolean&lt;/div&gt;&lt;div style=&quot;font-size: 25px;&quot;&gt;+update(DespesaVariavel despesaVariavel) int&lt;/div&gt;&lt;div style=&quot;font-size: 25px;&quot;&gt;+deleteById(int idDesepesaVariavel) void&lt;/div&gt;&lt;div style=&quot;font-size: 25px;&quot;&gt;+listarDVPeloId(int id) Arraylist&amp;lt;DespesaVariavel&amp;gt;&lt;/div&gt;&lt;div style=&quot;font-size: 25px;&quot;&gt;+somaDespesaVariavel(int userId) double&lt;/div&gt;&lt;div style=&quot;font-size: 25px;&quot;&gt;&lt;br&gt;&lt;/div&gt;" style="text;strokeColor=none;fillColor=none;align=left;verticalAlign=top;spacingLeft=4;spacingRight=4;overflow=hidden;rotatable=0;points=[[0,0.5],[1,0.5]];portConstraint=eastwest;whiteSpace=wrap;html=1;fontSize=25;" vertex="1" parent="94">
          <mxGeometry y="66" width="780" height="190" as="geometry" />
        </mxCell>
        <mxCell id="97" style="edgeStyle=orthogonalEdgeStyle;rounded=0;orthogonalLoop=1;jettySize=auto;html=1;endArrow=none;endFill=0;endSize=24;dashed=1;" edge="1" parent="WIyWlLk6GJQsqaUBKTNV-1" source="98" target="66">
          <mxGeometry relative="1" as="geometry" />
        </mxCell>
        <mxCell id="98" value="MetasDAO" style="swimlane;fontStyle=1;align=center;verticalAlign=top;childLayout=stackLayout;horizontal=1;startSize=26;horizontalStack=0;resizeParent=1;resizeParentMax=0;resizeLast=0;collapsible=1;marginBottom=0;whiteSpace=wrap;html=1;fontSize=25;spacingTop=-7;" vertex="1" parent="WIyWlLk6GJQsqaUBKTNV-1">
          <mxGeometry x="-1420" y="205" width="780" height="326" as="geometry" />
        </mxCell>
        <mxCell id="99" value="- usario: Usuario&lt;div&gt;- meta: Metas&lt;/div&gt;" style="text;strokeColor=none;fillColor=none;align=left;verticalAlign=top;spacingLeft=4;spacingRight=4;overflow=hidden;rotatable=0;points=[[0,0.5],[1,0.5]];portConstraint=eastwest;whiteSpace=wrap;html=1;fontSize=25;" vertex="1" parent="98">
          <mxGeometry y="26" width="780" height="70" as="geometry" />
        </mxCell>
        <mxCell id="100" value="" style="line;strokeWidth=1;fillColor=none;align=left;verticalAlign=middle;spacingTop=-1;spacingLeft=3;spacingRight=3;rotatable=0;labelPosition=right;points=[];portConstraint=eastwest;strokeColor=inherit;fontSize=25;" vertex="1" parent="98">
          <mxGeometry y="96" width="780" height="40" as="geometry" />
        </mxCell>
        <mxCell id="101" value="&lt;div style=&quot;font-size: 25px;&quot;&gt;+ save(Metas metas) boolean&lt;/div&gt;&lt;div style=&quot;font-size: 25px;&quot;&gt;+update(Metas metas) int&lt;/div&gt;&lt;div style=&quot;font-size: 25px;&quot;&gt;+deleteById(int id) void&lt;/div&gt;&lt;div style=&quot;font-size: 25px;&quot;&gt;+listarMPeloId(int id) Arraylist&amp;lt;Metas&amp;gt;&lt;/div&gt;&lt;div style=&quot;font-size: 25px;&quot;&gt;+somaMetas(int userId) double&lt;/div&gt;&lt;div style=&quot;font-size: 25px;&quot;&gt;+passando(Usuario usuario)&lt;/div&gt;&lt;div style=&quot;font-size: 25px;&quot;&gt;&lt;br&gt;&lt;/div&gt;" style="text;strokeColor=none;fillColor=none;align=left;verticalAlign=top;spacingLeft=4;spacingRight=4;overflow=hidden;rotatable=0;points=[[0,0.5],[1,0.5]];portConstraint=eastwest;whiteSpace=wrap;html=1;fontSize=25;" vertex="1" parent="98">
          <mxGeometry y="136" width="780" height="190" as="geometry" />
        </mxCell>
        <mxCell id="102" style="edgeStyle=orthogonalEdgeStyle;rounded=0;orthogonalLoop=1;jettySize=auto;html=1;endArrow=none;endFill=0;endSize=24;dashed=1;" edge="1" parent="WIyWlLk6GJQsqaUBKTNV-1" source="101" target="52">
          <mxGeometry relative="1" as="geometry" />
        </mxCell>
        <mxCell id="103" style="edgeStyle=orthogonalEdgeStyle;rounded=0;orthogonalLoop=1;jettySize=auto;html=1;endArrow=none;endFill=0;dashed=1;" edge="1" parent="WIyWlLk6GJQsqaUBKTNV-1" source="90" target="61">
          <mxGeometry relative="1" as="geometry" />
        </mxCell>
      </root>
    </mxGraphModel>
  </diagram>
</mxfile>
